<?xml version="1.0" encoding="UTF-8"?>
<svg xmlns="http://www.w3.org/2000/svg" xmlns:xlink="http://www.w3.org/1999/xlink" viewBox="0 0 512 512" width="512px" height="512px">
<g id="surface139545417">
<path style="fill-rule:nonzero;fill:rgb(0%,0%,0%);fill-opacity:1;stroke-width:36;stroke-linecap:butt;stroke-linejoin:round;stroke:rgb(98.823529%,72.941178%,1.568628%);stroke-opacity:1;stroke-miterlimit:10;" d="M 102.125393 21.500012 L 102.125393 58.075385 L 133.796823 39.787699 L 149.922215 67.723394 L 118.250785 86 L 149.922215 104.276606 L 133.796823 132.212301 L 102.125393 113.924615 L 102.125393 150.499988 L 69.874607 150.499988 L 69.874607 113.924615 L 38.203177 132.212301 L 22.077785 104.276606 L 53.749215 86 L 22.077785 67.723394 L 38.203177 39.787699 L 69.874607 58.075385 L 69.874607 21.500012 Z M 80.624341 76.698654 L 42.139945 54.4742 L 36.764287 63.775546 L 75.250266 86 L 36.764287 108.224454 L 42.139945 117.5258 L 80.624341 95.301346 L 80.624341 139.750254 L 91.375659 139.750254 L 91.375659 95.301346 L 129.860055 117.5258 L 135.235713 108.224454 L 96.749734 86 L 135.235713 63.775546 L 129.860055 54.4742 L 91.375659 76.698654 L 91.375659 32.249746 L 80.624341 32.249746 Z M 80.624341 76.698654 " transform="matrix(2.467721,0,0,2.467721,43.776001,43.776001)"/>
<path style=" stroke:none;fill-rule:nonzero;fill:rgb(0%,0%,0%);fill-opacity:1;" d="M 216.207031 96.832031 L 216.207031 187.089844 L 138.050781 141.960938 L 98.257812 210.898438 L 176.414062 256 L 98.257812 301.101562 L 138.050781 370.039062 L 216.207031 324.910156 L 216.207031 415.167969 L 295.792969 415.167969 L 295.792969 324.910156 L 373.949219 370.039062 L 413.742188 301.101562 L 335.585938 256 L 413.742188 210.898438 L 373.949219 141.960938 L 295.792969 187.089844 L 295.792969 96.832031 Z M 242.734375 123.359375 L 269.265625 123.359375 L 269.265625 233.046875 L 364.234375 178.203125 L 377.5 201.15625 L 282.527344 256 L 377.5 310.84375 L 364.234375 333.796875 L 269.265625 278.953125 L 269.265625 388.640625 L 242.734375 388.640625 L 242.734375 278.953125 L 147.765625 333.796875 L 134.5 310.84375 L 229.472656 256 L 134.5 201.15625 L 147.765625 178.203125 L 242.734375 233.046875 Z M 242.734375 123.359375 "/>
</g>
</svg>
