<?xml version="1.0" encoding="UTF-8"?>
<svg xmlns="http://www.w3.org/2000/svg" xmlns:xlink="http://www.w3.org/1999/xlink" viewBox="0 0 512 512" width="512px" height="512px">
<g id="surface135310477">
<path style="fill-rule:nonzero;fill:rgb(98.823529%,72.941178%,1.568628%);fill-opacity:1;stroke-width:40;stroke-linecap:butt;stroke-linejoin:round;stroke:rgb(0%,0%,0%);stroke-opacity:1;stroke-miterlimit:10;" d="M 102.124326 21.499455 L 102.124326 58.075132 L 133.797338 39.788106 L 149.923288 67.722733 L 118.250276 86.000003 L 149.923288 104.277272 L 133.797338 132.211899 L 102.124326 113.924873 L 102.124326 150.50055 L 69.875679 150.50055 L 69.875679 113.924873 L 38.202667 132.211899 L 22.076717 104.277272 L 53.749729 86.000003 L 22.076717 67.722733 L 38.202667 39.788106 L 69.875679 58.075132 L 69.875679 21.499455 Z M 80.62577 76.698759 L 42.139435 54.474965 L 36.763576 63.776209 L 75.249911 86.000003 L 36.763576 108.223796 L 42.139435 117.52504 L 80.62577 95.301246 L 80.62577 139.750459 L 91.374235 139.750459 L 91.374235 95.301246 L 129.86057 117.52504 L 135.236429 108.223796 L 96.750094 86.000003 L 135.236429 63.776209 L 129.86057 54.474965 L 91.374235 76.698759 L 91.374235 32.249546 L 80.62577 32.249546 Z M 80.62577 76.698759 " transform="matrix(2.402233,0,0,2.402233,49.407999,49.407999)"/>
<path style=" stroke:none;fill-rule:nonzero;fill:rgb(98.823529%,72.941178%,1.568628%);fill-opacity:1;" d="M 217.265625 101.054688 L 217.265625 188.917969 L 141.179688 144.988281 L 102.441406 212.09375 L 178.527344 256 L 102.441406 299.90625 L 141.179688 367.011719 L 217.265625 323.082031 L 217.265625 410.945312 L 294.734375 410.945312 L 294.734375 323.082031 L 370.820312 367.011719 L 409.558594 299.90625 L 333.472656 256 L 409.558594 212.09375 L 370.820312 144.988281 L 294.734375 188.917969 L 294.734375 101.054688 Z M 243.089844 126.878906 L 268.910156 126.878906 L 268.910156 233.65625 L 361.363281 180.269531 L 374.277344 202.613281 L 281.824219 256 L 374.277344 309.386719 L 361.363281 331.730469 L 268.910156 278.34375 L 268.910156 385.121094 L 243.089844 385.121094 L 243.089844 278.34375 L 150.636719 331.730469 L 137.722656 309.386719 L 230.175781 256 L 137.722656 202.613281 L 150.636719 180.269531 L 243.089844 233.65625 Z M 243.089844 126.878906 "/>
</g>
</svg>
