<svg xmlns="http://www.w3.org/2000/svg" viewBox="0 0 1921 1081"><defs><style>.cls-1{opacity:0.96;}.cls-2{fill:#ffb4a2;opacity:0.64;}.cls-3{fill:none;}</style></defs><g id="Layer_2" data-name="Layer 2"><g id="Layer_1-2" data-name="Layer 1" class="cls-1"><path class="cls-2" d="M1300.74,599.85c-1.41-.05-2.07-2.41-2.57-4-1.94-6.13,1.83-11.66,2.46-12.55-6.83-1.07-12-4.08-10.77-12.13,1.21-7.89,7.23-6.14,12.23-5,.36-12.5,3-16.33,9.12-16,7.92.42,6.12,7.34,7.06,13.6,2.46-2.93,7.21-6.12,10.77-5.18,3.34.89,3.37,4.66,4,8.1.73,4.1-4.84,7.53-8,9.68a1.24,1.24,0,0,0-.21,1.86c3,3.25,6.19,7.41,5,10.67a10.19,10.19,0,0,1-3.16,4.27,9.41,9.41,0,0,1-4.79,1.74c-3.43.15-5.53-4.46-8.15-6.8C1310.06,584.93,1316.16,600.39,1300.74,599.85Z"/><rect class="cls-3" width="1921" height="1081"/></g></g></svg>