<svg xmlns="http://www.w3.org/2000/svg" viewBox="0 0 1921 1081"><defs><style>.cls-1{opacity:0.96;}.cls-2,.cls-3{fill:none;}.cls-2{stroke:#6d6875;stroke-miterlimit:10;}</style></defs><g id="Layer_2" data-name="Layer 2"><g id="Layer_1-2" data-name="Layer 1" class="cls-1"><path class="cls-2" d="M1461.7,35c-1.45-1-3.53,2-6.94,1.22a9.75,9.75,0,0,1-3.91-2.35c-1.38-1.14-2.56-2.11-3.11-3.67a7.7,7.7,0,0,1,0-4.38c.26-.91.5-1.1.36-1.59-.38-1.32-2.54-1.25-4-2.66-2.13-2.07-1.38-5.91-.73-7.64s1.57-2.53,3.49-4.33a5.71,5.71,0,0,1,3.11-1.72,3.74,3.74,0,0,1,2.09.15c.27.13.48.28.64.21.37-.15.1-1.17,0-1.53-.39-2,1.31-4.79,3.63-5.53,2-.64,4.19.35,5.14.78,3.36,1.53,3.74,3.8,5.63,3.9s1.93-2.25,4.79-3c2.61-.72,5.31.5,6.24.92,1.58.72,3.59,1.63,4.21,3.31s-.52,3,.45,5.15a1.94,1.94,0,0,0,.86,1c.76.37,1.5-.16,2.31-.41,1.87-.56,4.25.33,5.69,1.37a7.31,7.31,0,0,1,2.87,4.55c.36,2.71-1.94,5.25-4.29,6.16-.93.36-2.23.6-2.22,1.23,0,.39.49.63,1.08,1.16a8.43,8.43,0,0,1,2.13,3.34,6,6,0,0,1-.3,3.93,6.63,6.63,0,0,1-2,3.4,6.36,6.36,0,0,1-4.2,1.58c-2.7,0-4.17-1.91-5.47-1.23-.38.2-.24.36-1.13,1.89a10.78,10.78,0,0,1-1.92,2.7,5.84,5.84,0,0,1-3.22,1.41c-1.45.16-3-.5-6-1.81-2.07-.9-3.1-1.35-3.59-1.9C1461.44,38.49,1463,35.9,1461.7,35Z"/><rect class="cls-3" width="1921" height="1081"/></g></g></svg>