<svg xmlns="http://www.w3.org/2000/svg" viewBox="0 0 1921 1081"><defs><style>.cls-1{opacity:0.96;}.cls-2{fill:#e5989b;opacity:0.86;}.cls-3{fill:none;}</style></defs><g id="Layer_2" data-name="Layer 2"><g id="Layer_1-2" data-name="Layer 1" class="cls-1"><path class="cls-2" d="M622.88,539.2c1.19,1.29,4.07-1.24,7.27.36a9.52,9.52,0,0,1,3.28,3.28c1.07,1.46,2,2.72,2.12,4.42a8.3,8.3,0,0,1-1.16,4.43c-.5.85-.79,1-.79,1.51,0,1.43,2.21,1.85,3.3,3.62,1.57,2.58-.22,6.28-1.33,7.88s-2.25,2.19-4.66,3.56a6.12,6.12,0,0,1-3.57,1,3.78,3.78,0,0,1-2.06-.64c-.23-.19-.4-.39-.58-.36-.4.07-.42,1.16-.44,1.54-.16,2.14-2.6,4.53-5.12,4.74-2.19.19-4.1-1.32-4.93-2-3-2.32-2.71-4.7-4.58-5.24s-2.53,1.83-5.6,2c-2.8.13-5.17-1.73-6-2.37-1.39-1.09-3.15-2.47-3.32-4.31s1.32-2.87.94-5.31a1.92,1.92,0,0,0-.58-1.24c-.66-.54-1.55-.18-2.43-.12-2,.14-4.15-1.31-5.31-2.68a7.43,7.43,0,0,1-1.65-5.27c.37-2.81,3.36-4.84,5.95-5.22,1-.15,2.39-.09,2.56-.74.09-.39-.32-.74-.77-1.42a8.31,8.31,0,0,1-1.23-3.86,6.52,6.52,0,0,1,1.36-3.9,7.29,7.29,0,0,1,3-3,6.74,6.74,0,0,1,4.63-.63c2.68.67,3.65,2.9,5.13,2.51.43-.12.34-.3,1.64-1.65a11.34,11.34,0,0,1,2.65-2.28,6.22,6.22,0,0,1,3.59-.68c1.5.18,2.86,1.19,5.52,3.21,1.82,1.39,2.73,2.08,3.07,2.75C624.07,535.75,621.8,538,622.88,539.2Z"/><rect class="cls-3" width="1921" height="1081"/></g></g></svg>