<svg xmlns="http://www.w3.org/2000/svg" viewBox="0 0 1921 1082"><defs><style>.cls-1{opacity:0.96;}.cls-2,.cls-3{fill:none;}.cls-2{stroke:#ffb4a2;stroke-miterlimit:10;stroke-width:2px;}</style></defs><g id="Layer_2" data-name="Layer 2"><g id="Layer_1-2" data-name="Layer 1" class="cls-1"><path class="cls-2" d="M901.85,1081c-1.41,0-2.08-2.41-2.58-4-1.93-6.13,1.83-11.66,2.46-12.55-6.83-1.06-12-4.07-10.77-12.13,1.21-7.89,7.24-6.13,12.24-5,.35-12.5,3-16.33,9.11-16,7.92.42,6.13,7.34,7.06,13.6,2.46-2.94,7.21-6.12,10.77-5.18,3.34.88,3.37,4.65,4,8.1.73,4.1-4.84,7.53-8,9.68a1.24,1.24,0,0,0-.21,1.86c3,3.25,6.19,7.41,5,10.66a10.16,10.16,0,0,1-3.16,4.28,9.51,9.51,0,0,1-4.79,1.74c-3.43.14-5.52-4.47-8.15-6.8C911.16,1066.06,917.27,1081.53,901.85,1081Z"/><rect class="cls-3" width="1921" height="1081"/></g></g></svg>